<?xml version="1.0" encoding="UTF-8"?>
<svg version="1.1" xmlns="http://www.w3.org/2000/svg" width="1200" height="1200">
<path d="M0 0 C4.87358215 0.02278801 9.7462901 0.00921662 14.61984253 -0.01376057 C38.31266721 -0.1084369 61.41791272 0.9307897 84.85058594 4.52148438 C85.80400879 4.66624207 86.75743164 4.81099976 87.73974609 4.96014404 C92.80480176 5.75050558 97.82975313 6.6766837 102.85058594 7.70898438 C103.57387085 7.85388306 104.29715576 7.99878174 105.0423584 8.14807129 C151.62298946 17.50523991 195.33103547 33.32399006 237.85058594 54.52148438 C238.69669434 54.94252441 239.54280273 55.36356445 240.41455078 55.79736328 C271.53092469 71.40899319 301.6482321 91.17395654 327.95214844 114.02148438 C330.66272419 116.35944729 333.42755385 118.602123 336.22558594 120.83398438 C347.95517567 130.43244693 358.62848556 141.20574529 369.35058594 151.89648438 C369.86914154 152.41236115 370.38769714 152.92823792 370.92196655 153.45974731 C376.78425711 159.29904622 382.50233428 165.20082333 387.85058594 171.52148438 C388.727515 172.53118568 389.60507823 173.54033671 390.48339844 174.54882812 C397.37674315 182.5982667 403.85801753 190.91430363 410.23193359 199.37939453 C411.79610505 201.44938553 413.37398943 203.50811998 414.95605469 205.56445312 C429.29889733 224.29777364 441.32775533 244.54249729 452.60205078 265.23730469 C453.40909695 266.7137857 454.22156205 268.18732332 455.04052734 269.65722656 C488.19105584 329.17090944 506.98381931 398.7753969 511.85058594 466.52148438 C511.98194946 468.31863892 511.98194946 468.31863892 512.1159668 470.15209961 C512.91837998 481.87813655 513.05144177 493.58356835 513.03808594 505.33398438 C513.03717957 506.81623505 513.03717957 506.81623505 513.03625488 508.32843018 C513.00956466 524.47373877 512.5618695 540.45377925 510.85058594 556.52148438 C510.72699707 557.70645508 510.6034082 558.89142578 510.47607422 560.11230469 C501.07038099 647.19192271 469.73324144 731.71308032 417.85058594 802.52148438 C417.12621338 803.51607666 417.12621338 803.51607666 416.38720703 804.53076172 C406.38198414 818.2307347 395.78776523 831.50494636 384.22949219 843.93164062 C382.96058609 845.31306057 381.69778937 846.70116965 380.48266602 848.13012695 C375.0570061 854.5013515 369.14995795 860.37334982 363.22631836 866.27612305 C361.41697661 868.08010523 359.61304275 869.88937102 357.80957031 871.69921875 C351.99336354 877.51908084 346.15563624 883.22597902 339.85058594 888.52148438 C338.84056405 889.39804419 337.83140292 890.27559713 336.82324219 891.15429688 C317.38079887 907.80433558 296.56020199 922.96893729 274.85058594 936.52148438 C274.24214844 936.90224121 273.63371094 937.28299805 273.00683594 937.67529297 C199.29268012 983.52436631 110.92344189 1012.41323462 23.70605469 1012.72460938 C22.38994705 1012.73162369 21.07383942 1012.738638 19.71784973 1012.74586487 C15.49125692 1012.76527754 11.26471883 1012.77029884 7.03808594 1012.77148438 C6.31868835 1012.77192623 5.59929077 1012.77236809 4.85809326 1012.77282333 C-16.2950167 1012.77964173 -37.16693232 1012.53156748 -58.14941406 1009.52148438 C-60.06778076 1009.26407471 -60.06778076 1009.26407471 -62.02490234 1009.00146484 C-119.59324396 1001.25944596 -174.22909038 983.40559543 -226.14941406 957.52148438 C-226.99552246 957.10044434 -227.84163086 956.6794043 -228.71337891 956.24560547 C-259.82975281 940.63397556 -289.94706023 920.86901221 -316.25097656 898.02148438 C-318.96155231 895.68352146 -321.72638197 893.44084575 -324.52441406 891.20898438 C-336.25400379 881.61052182 -346.92731368 870.83722346 -357.64941406 860.14648438 C-358.16796967 859.6306076 -358.68652527 859.11473083 -359.22079468 858.58322144 C-365.08308524 852.74392253 -370.80116241 846.84214542 -376.14941406 840.52148438 C-377.02634313 839.51178307 -377.90390636 838.50263204 -378.78222656 837.49414062 C-385.67557128 829.44470205 -392.15684565 821.12866512 -398.53076172 812.66357422 C-400.09493317 810.59358322 -401.67281756 808.53484877 -403.25488281 806.47851562 C-417.59772546 787.74519511 -429.62658346 767.50047146 -440.90087891 746.80566406 C-441.70792507 745.32918305 -442.52039017 743.85564543 -443.33935547 742.38574219 C-473.21372872 688.75359645 -490.89208867 627.29742323 -498.14941406 566.52148438 C-498.23521729 565.86884613 -498.32102051 565.21620789 -498.40942383 564.54379272 C-500.6576164 547.14797883 -500.52434005 529.67011876 -500.52001953 512.16235352 C-500.51985828 508.72007946 -500.53356627 505.27834502 -500.56103516 501.83618164 C-501.23866104 415.48804987 -478.41014606 330.60954345 -406.14941406 209.52148438 C-405.63668945 208.81443359 -405.12396484 208.10738281 -404.59570312 207.37890625 C-394.64138846 193.71358163 -384.04617676 180.49456914 -372.52832031 168.11132812 C-371.25941421 166.72990818 -369.9966175 165.3417991 -368.78149414 163.9128418 C-363.35583423 157.54161725 -357.44878608 151.66961893 -351.52514648 145.7668457 C-349.71580474 143.96286352 -347.91187087 142.15359773 -346.10839844 140.34375 C-340.29219167 134.52388791 -334.45446436 128.81698973 -328.14941406 123.52148438 C-327.13939218 122.64492456 -326.13023105 121.76737162 -325.12207031 120.88867188 C-305.679627 104.23863317 -284.85903012 89.07403146 -263.14941406 75.52148438 C-262.54097656 75.14072754 -261.93253906 74.7599707 -261.30566406 74.36767578 C-186.97480873 28.13502481 -99.39231905 0.17089765 0 0 Z M-181.14941406 146.52148438 C-181.93848145 146.9154541 -182.72754883 147.30942383 -183.54052734 147.71533203 C-202.49702034 157.22503985 -220.24244406 168.74751042 -237.14941406 181.52148438 C-237.77396484 181.99295898 -238.39851562 182.46443359 -239.04199219 182.95019531 C-264.52431392 202.31621005 -288.06502133 224.58082302 -308.14941406 249.52148438 C-308.63555176 250.12444336 -309.12168945 250.72740234 -309.62255859 251.34863281 C-366.6800401 322.7296352 -401.10890109 416.53411622 -397.14941406 508.52148438 C-397.10300781 509.62298828 -397.05660156 510.72449219 -397.00878906 511.859375 C-392.57363945 609.1806694 -355.85973972 698.62026853 -290.14941406 770.52148438 C-289.22590824 771.54983508 -288.3027491 772.5784972 -287.37988281 773.60742188 C-280.81653821 780.87752118 -273.93515259 787.63774005 -266.64404297 794.17529297 C-265.28460732 795.39971769 -263.94071073 796.64133969 -262.59863281 797.88476562 C-196.34096799 858.93724565 -105.5930514 893.5300717 0.22558594 897.70898438 C0.95969696 897.70804779 1.69380798 897.70711121 2.45016479 897.70614624 C94.72519794 897.4538079 183.85274681 864.18242824 262.37402344 798.78710938 C263.73870054 797.5386666 265.11130032 796.29811319 266.51586914 795.09472656 C272.1865665 790.23557932 277.50865688 785.04957728 282.78637695 779.77099609 C284.27700209 778.282552 285.77545611 776.80231161 287.27441406 775.32226562 C293.58511481 769.04792749 299.29627957 762.48498714 304.85058594 755.52148438 C305.78544503 754.41972372 306.72678704 753.3233787 307.67871094 752.23632812 C354.38287821 698.67719437 383.05785955 628.940571 394.10058594 559.27148438 C394.25172852 558.32845459 394.40287109 557.3854248 394.55859375 556.41381836 C397.31817823 537.86448951 398.2338152 519.25388648 398.16308594 500.52148438 C398.16126312 499.5067807 398.15944031 498.49207703 398.15756226 497.44662476 C397.87042375 401.8332448 362.24971303 309.05325028 298.85058594 237.52148438 C298.03976562 236.59851563 297.22894531 235.67554688 296.39355469 234.72460938 C290.26028092 227.88625059 283.81692073 221.35598998 277.35058594 214.83398438 C276.4844165 213.95476318 275.61824707 213.07554199 274.72583008 212.16967773 C269.49575315 206.93270941 264.08296835 202.11546143 258.30615234 197.48901367 C256.35487227 195.92554518 254.44627692 194.33964012 252.56542969 192.69335938 C238.10530921 180.08397161 222.25512615 169.42500238 205.85058594 159.52148438 C205.04314941 159.03325195 204.23571289 158.54501953 203.40380859 158.04199219 C120.86603507 108.56173041 23.07921876 92.11228863 -181.14941406 146.52148438 Z " fill="#D6A61E" transform="translate(594.1494140625,117.478515625)"/>
<path d="M0 0 C1.78540192 0.00273422 1.78540192 0.00273422 3.60687256 0.00552368 C21.08521468 0.05057474 38.15810253 0.49704192 55.4375 3.3125 C56.57606445 3.48942383 57.71462891 3.66634766 58.88769531 3.84863281 C122.55802062 13.87995753 184.82970118 38.47975181 235.51757812 78.79394531 C237.37762559 80.26514257 239.25483435 81.71044665 241.140625 83.1484375 C248.29139651 88.6269297 254.99595788 94.43164807 261.55078125 100.609375 C263.82617137 102.74005154 266.12550564 104.79540376 268.5 106.8125 C275.99294435 113.30532678 283.0789925 120.47173512 289.4921875 128.03125 C291.05818162 129.86767684 292.64742319 131.67169474 294.2578125 133.46875 C361.94685724 209.48073121 394.29791677 311.86561659 388.97265625 412.84448242 C384.96984094 477.43815882 364.97954574 540.54115602 330.4375 595.3125 C330.00518066 595.99908691 329.57286133 596.68567383 329.12744141 597.39306641 C317.21474243 616.12784962 303.53734919 633.50944645 288.61328125 649.91796875 C287.14246873 651.53665471 285.68174845 653.16455971 284.23046875 654.80078125 C277.18057927 662.73962352 269.87059878 670.40484717 261.78515625 677.30078125 C259.93902688 678.88273903 258.12002912 680.48448426 256.30859375 682.10546875 C218.96103491 715.3125 218.96103491 715.3125 209.4375 715.3125 C208.03295898 713.98657227 208.03295898 713.98657227 206.49609375 712.06640625 C201.99103271 706.69321321 197.05801267 701.78278635 192.0949707 696.83959961 C190.50291034 695.25290054 188.9162701 693.66092258 187.33007812 692.06835938 C182.5077519 687.24320762 177.63852349 682.54296987 172.45092773 678.10766602 C167.12417548 673.35834999 162.22293289 668.13072246 157.21484375 663.05078125 C151.57578868 657.35876549 151.57578868 657.35876549 145.625 652 C138.73435132 646.09870633 132.51100787 639.43810642 126.13720703 632.99169922 C124.37486104 631.21108061 122.60937068 629.43362065 120.84375 627.65625 C120.31954468 627.12374634 119.79533936 626.59124268 119.25524902 626.04260254 C116.48677599 623.25634256 113.65553163 620.61037577 110.67260742 618.05419922 C105.60527182 613.66694725 100.96019053 608.88429097 96.26953125 604.1015625 C95.3037291 603.12369112 94.33738342 602.1463563 93.37052917 601.16952515 C89.30785399 597.06464872 85.24794366 592.9571681 81.20483398 588.83300781 C78.7147317 586.29369457 76.21438035 583.76484767 73.70758629 581.24201584 C72.31973437 579.83978572 70.94270673 578.42686767 69.56611633 577.01358032 C58.3779577 565.78024292 46.17455162 556.19495017 29.75 556 C25.66086006 556.10410234 21.671 556.34163455 17.625 556.9375 C16.0471875 557.123125 16.0471875 557.123125 14.4375 557.3125 C13.7775 556.6525 13.1175 555.9925 12.4375 555.3125 C12.93631197 550.62626182 16.31949268 548.14458621 19.5625 545.0625 C20.76358701 543.89384412 21.96282284 542.72328253 23.16015625 541.55078125 C23.7339502 540.98955566 24.30774414 540.42833008 24.89892578 539.85009766 C26.69321371 538.0569486 28.36386597 536.188064 30 534.25 C33.41061121 530.22700972 37.1385133 526.55364098 40.91235352 522.87475586 C43.6053495 520.2285086 46.15176518 517.5194328 48.609375 514.65234375 C52.91891238 509.67314503 57.54608309 505.01784312 62.20019531 500.36450195 C63.70407631 498.8583992 65.19972985 497.34441645 66.6953125 495.83007812 C67.65576166 494.8667004 68.61668177 493.90379191 69.578125 492.94140625 C70.43954102 492.07588135 71.30095703 491.21035645 72.18847656 490.31860352 C74.88031265 487.91751611 76.51817031 487.30713948 80.1171875 487.328125 C85.83645124 487.7476309 91.24648275 488.40721842 96.8125 489.8125 C115.77022214 494.4435681 133.95626156 492.1700591 150.875 482.375 C160.40884609 476.00979675 168.41879954 466.93655999 175.80078125 458.234375 C177.80140537 455.88519346 179.86760174 453.60082973 181.9375 451.3125 C185.20454335 447.69226277 188.43270776 444.04266435 191.6328125 440.36328125 C193.66708141 438.05161203 195.7397231 435.7771857 197.8125 433.5 C200.88496773 430.10166448 203.82192622 426.63659477 206.6875 423.0625 C211.34808865 417.29808772 216.37529281 411.92398047 221.44140625 406.51953125 C225.82992781 401.83655056 230.00869672 396.98833043 234.171875 392.10546875 C239.75850067 385.5589232 245.40180576 379.09345218 251.21484375 372.74609375 C255.29799757 368.275435 259.25592379 363.70108111 263.18359375 359.09375 C264.2055638 357.89569225 265.22770431 356.6977799 266.25 355.5 C267.02573364 354.59096924 267.02573364 354.59096924 267.81713867 353.66357422 C271.0222653 349.92217738 274.28943729 346.25151522 277.625 342.625 C290.0306461 329.97863824 290.0306461 329.97863824 297.4375 314.3125 C295.65962454 313.52635542 295.65962454 313.52635542 293.4375 313.3125 C281.82339461 319.68366639 271.35762044 332.62133704 262.90625 342.625 C260.79104097 345.05524016 258.48493778 347.27483789 256.1875 349.53125 C254.35507513 351.39639674 252.64396865 353.33177746 250.9375 355.3125 C248.6919206 357.91897609 246.39198488 360.40184521 243.9375 362.8125 C241.50360268 365.20303167 239.22394441 367.66296262 237 370.25 C234.58132221 373.05826347 232.07850317 375.71220593 229.4375 378.3125 C226.91988304 380.79175327 224.53659278 383.30690184 222.25 386 C205.64127358 405.02454117 205.64127358 405.02454117 193.4375 408.3125 C192.7775 408.3125 192.1175 408.3125 191.4375 408.3125 C191.83870506 406.43413086 192.25926444 404.55989163 192.6875 402.6875 C192.91953125 401.64335938 193.1515625 400.59921875 193.390625 399.5234375 C195.38098782 393.41866795 199.40906836 389.03165265 203.75 384.4375 C204.73637466 383.37825333 205.72205303 382.31835783 206.70703125 381.2578125 C207.17963379 380.75024414 207.65223633 380.24267578 208.13916016 379.71972656 C209.77428287 377.94747246 211.36106496 376.13704225 212.9375 374.3125 C216.34494919 370.38082786 219.86879673 366.55888756 223.39282227 362.73217773 C225.92490116 359.97776572 228.42785268 357.20507501 230.875 354.375 C234.49894644 350.19217989 238.27005746 346.14978193 242.03271484 342.09228516 C245.28365512 338.58037256 248.46734313 335.02248582 251.59765625 331.40234375 C254.00420854 328.66878648 256.47087669 325.99168466 258.9375 323.3125 C270.05978201 311.74527163 270.05978201 311.74527163 276.4375 297.3125 C275.09695932 297.63832586 273.76525112 298.00044859 272.4375 298.375 C271.695 298.57222656 270.9525 298.76945312 270.1875 298.97265625 C263.18233383 302.38568465 257.57666291 309.0225632 252.12109375 314.49609375 C251.46093765 315.15529312 250.80078156 315.81449249 250.12062073 316.4936676 C248.73714494 317.87646835 247.35490917 319.26051076 245.97387695 320.64575195 C243.88018331 322.74480343 241.78120126 324.8384594 239.68164062 326.93164062 C238.32780429 328.28613786 236.97427825 329.64094531 235.62109375 330.99609375 C235.00423203 331.61093124 234.3873703 332.22576874 233.7518158 332.85923767 C230.72449374 335.9026168 227.80671418 338.99608246 224.99926758 342.24414062 C221.25460428 346.57296605 217.29113362 350.65566416 213.265625 354.72265625 C212.50256042 355.49379257 211.73949585 356.26492889 210.95330811 357.05943298 C209.3479475 358.67853327 207.74109343 360.296154 206.1328125 361.91235352 C204.50525831 363.55144488 202.88218444 365.19499748 201.26367188 366.84301758 C181.44883968 387.01800971 181.44883968 387.01800971 174.4375 389.3125 C171.61968898 388.38640767 170.70051507 387.75962561 169.1875 385.1875 C168.94 384.56875 168.6925 383.95 168.4375 383.3125 C174.23038208 376.10905798 180.19188814 369.12589476 186.4375 362.3125 C187.2728125 361.384375 188.108125 360.45625 188.96875 359.5 C196.15766866 351.55836231 203.69095121 343.98646766 211.31958008 336.46728516 C215.60528737 332.22585605 219.70022508 327.92182339 223.62573242 323.34692383 C227.9758676 318.46218101 232.75036944 313.96507874 237.41015625 309.37890625 C241.77442272 305.05667123 245.98640374 300.67966814 249.9777832 296.00927734 C251.31962607 294.44951686 252.71995169 292.94057494 254.125 291.4375 C257.14126546 287.3614656 258.75561284 283.06688493 260.4375 278.3125 C253.05314509 280.8724097 247.56120209 283.46813172 242.28125 289.2890625 C240.51639293 291.22591835 238.6916106 292.87871856 236.6875 294.5625 C232.57388456 298.09308333 228.78246288 301.90696024 225.00097656 305.78613281 C222.28574156 308.54929457 219.49842904 311.15870174 216.5625 313.6875 C212.31130425 317.36486514 208.37177691 321.30138175 204.4375 325.3125 C199.90771287 329.93075953 195.30790516 334.3444728 190.40625 338.56640625 C187.09989113 341.49883167 184.03093965 344.65887984 180.9375 347.8125 C163.9825451 364.89465355 163.9825451 364.89465355 155.4375 369.3125 C152.88238461 369.04281877 151.70357974 368.50517843 149.625 367 C148.4375 365.3125 148.4375 365.3125 148.69674683 363.39385986 C149.51573254 361.09268309 150.36840864 360.02277163 152.10205078 358.32324219 C152.65998322 357.76876404 153.21791565 357.21428589 153.79275513 356.64300537 C154.39997406 356.05440735 155.00719299 355.46580933 155.6328125 354.859375 C156.57131546 353.93079681 156.57131546 353.93079681 157.52877808 352.98345947 C159.53304852 351.0025847 161.54715812 349.03210431 163.5625 347.0625 C165.55473744 345.10556191 167.54474647 343.14643503 169.5319519 341.18438721 C170.76752832 339.96550271 172.00618916 338.74973336 173.24856567 337.53778076 C176.13328049 334.70186723 178.88931467 331.82610087 181.51147461 328.74511719 C187.07514506 322.30629078 193.22024349 316.40723653 199.24609375 310.40625 C200.58152327 309.0726887 201.91672985 307.73890412 203.25172424 306.40490723 C206.74289128 302.91753352 210.23705234 299.4331751 213.73187256 295.94946289 C217.30680632 292.38481217 220.87886294 288.81728083 224.45117188 285.25 C231.44382174 278.26803122 238.43964201 271.28924853 245.4375 264.3125 C244.7775 262.6625 244.1175 261.0125 243.4375 259.3125 C230.04295552 264.78521456 219.9627112 275.64774959 209.5703125 285.39453125 C207.25373892 287.56281679 204.9069063 289.68172771 202.5 291.75 C198.54239408 295.16055024 194.74765031 298.73941336 190.9375 302.3125 C186.52662093 306.4486716 182.09881378 310.53884727 177.515625 314.484375 C174.65235086 317.00319511 171.85981478 319.59586423 169.0625 322.1875 C163.56241951 327.27733826 158.04731558 332.34331151 152.4375 337.3125 C151.95925781 337.75432617 151.48101563 338.19615234 150.98828125 338.65136719 C140.2104481 348.6049316 140.2104481 348.6049316 131.4375 348.3125 C130.81546976 337.4788067 130.81546976 337.4788067 132.9375 333.5 C133.7625 332.778125 134.5875 332.05625 135.4375 331.3125 C135.96214844 330.84328125 136.48679687 330.3740625 137.02734375 329.890625 C138.33510772 328.72939695 139.65545942 327.58227361 140.984375 326.4453125 C143.91762838 323.89506354 146.77437012 321.26660344 149.625 318.625 C150.18131104 318.10977783 150.73762207 317.59455566 151.31079102 317.0637207 C152.45433469 316.0041578 153.59764351 314.94434138 154.74072266 313.88427734 C156.37035956 312.37469426 158.00283565 310.86826633 159.63671875 309.36328125 C166.06582186 303.4411396 172.46763784 297.4907132 178.85327148 291.52172852 C182.84667861 287.7909578 186.85452047 284.07656226 190.875 280.375 C195.87254445 275.76961856 200.84914666 271.14221205 205.8125 266.5 C206.79367798 265.58456421 206.79367798 265.58456421 207.79467773 264.65063477 C216.36794997 257.00862727 216.36794997 257.00862727 223.4375 248.0625 C224.05625 247.09570312 224.05625 247.09570312 224.6875 246.109375 C225.74313239 244.133987 225.74313239 244.133987 224.4375 241.3125 C216.8793175 243.04716484 212.80042556 246.30604932 207.25 251.640625 C204.61386007 254.14495793 201.90517434 256.42327683 199.0625 258.6875 C193.62363395 263.07594127 188.53021096 267.77696412 183.421875 272.5390625 C178.80396239 276.84355514 174.02988393 280.95562405 169.2265625 285.05078125 C168.02587959 286.07533092 166.82536379 287.10007646 165.625 288.125 C165.01881836 288.64231689 164.41263672 289.15963379 163.78808594 289.69262695 C160.0467918 292.89752229 156.37634617 296.16459278 152.75 299.5 C149.29734304 302.67080742 145.78219034 305.69285031 142.125 308.625 C136.37771553 313.26070366 131.02781566 318.27017901 125.64453125 323.31640625 C120.98558681 327.68240293 116.16679197 331.84425833 111.30078125 335.9765625 C104.71629976 341.57825804 98.24519998 347.2648613 91.91796875 353.15625 C88.46053529 356.37523977 84.9539537 359.52109679 81.38671875 362.6171875 C77.3516513 366.12664496 73.37363893 369.69244495 69.4375 373.3125 C68.16132812 374.47072266 68.16132812 374.47072266 66.859375 375.65234375 C53.98252782 387.83794913 46.50379098 402.7659773 45.90039062 420.46777344 C45.81754746 429.74939438 46.98218011 437.92197311 49.53125 446.81640625 C51.07507201 452.77209894 51.96016602 458.46773418 48.984375 464.02734375 C45.60698207 468.73886698 41.30259515 472.69514122 37.1875 476.75 C36.36636719 477.57048828 35.54523438 478.39097656 34.69921875 479.23632812 C30.37889612 483.52584021 25.98132648 487.66027916 21.36669922 491.63061523 C17.34885432 495.13339092 13.51267066 498.83775714 9.64257812 502.50195312 C8.69608398 503.39237305 8.69608398 503.39237305 7.73046875 504.30078125 C7.1686792 504.83227783 6.60688965 505.36377441 6.02807617 505.91137695 C4.4375 507.3125 4.4375 507.3125 1.4375 509.3125 C-2.40532763 509.06340975 -4.23278072 506.97915108 -6.828125 504.3046875 C-7.63636719 503.48226563 -8.44460938 502.65984375 -9.27734375 501.8125 C-10.11394531 500.94625 -10.95054687 500.08 -11.8125 499.1875 C-17.00399136 493.85746021 -22.18870285 488.64606713 -27.84277344 483.80517578 C-30.02635635 481.90988533 -32.0497732 479.88715685 -34.0625 477.8125 C-37.45819739 474.37012636 -40.97193808 471.16240193 -44.63671875 468.01171875 C-54.21484048 459.56043487 -54.21484048 459.56043487 -54.90625 455.08984375 C-55.38503552 446.38791697 -52.73228581 440.18314909 -49.31640625 432.41015625 C-41.40865362 414.32995042 -42.02678852 394.17082542 -49.11865234 375.99658203 C-55.72282081 359.90749506 -67.64964834 346.74052359 -79.5625 334.3125 C-80.06507324 333.78269531 -80.56764648 333.25289062 -81.08544922 332.70703125 C-88.99076023 324.41002674 -97.33017406 317.09833865 -106.5625 310.3125 C-107.62210937 309.53132813 -108.68171875 308.75015625 -109.7734375 307.9453125 C-118.01074323 302.06733384 -126.60948981 297.01389114 -135.5625 292.3125 C-136.54379883 291.79623047 -136.54379883 291.79623047 -137.54492188 291.26953125 C-163.92215172 277.62343216 -193.05680283 271.10855812 -222.5625 269.3125 C-223.63628906 269.2403125 -224.71007812 269.168125 -225.81640625 269.09375 C-236.13399578 268.73331019 -247.51342403 270.46702418 -255.5625 277.3125 C-256.11421875 277.78171875 -256.6659375 278.2509375 -257.234375 278.734375 C-264.87330633 286.37330633 -266.04984944 297.92081161 -266.11865234 308.20751953 C-266.10012207 309.47966309 -266.0815918 310.75180664 -266.0625 312.0625 C-266.05696106 312.73069763 -266.05142212 313.39889526 -266.04571533 314.08734131 C-265.64400787 355.81671253 -250.95720054 396.27390967 -225.5625 429.3125 C-224.87414062 430.21226562 -224.18578125 431.11203125 -223.4765625 432.0390625 C-219.43406562 437.20003678 -215.13666702 442.0959471 -210.71875 446.9375 C-208.7768852 449.07636558 -206.88272404 451.24669385 -205 453.4375 C-198.17577991 461.22991608 -190.72914463 467.94274756 -182.5625 474.3125 C-181.78261719 474.93253906 -181.00273437 475.55257813 -180.19921875 476.19140625 C-162.63262852 489.38849169 -140.68226227 493.8255771 -119.08837891 490.98730469 C-111.10830938 489.64229399 -103.56303955 487.40471294 -96 484.5625 C-90.45678635 482.48379488 -86.45517417 481.56422391 -80.5625 482.3125 C-76.95623365 484.17657617 -74.23475832 486.39262494 -71.3828125 489.26171875 C-70.61839844 490.02806641 -69.85398437 490.79441406 -69.06640625 491.58398438 C-68.28136719 492.38126953 -67.49632812 493.17855469 -66.6875 494 C-65.91019531 494.77794922 -65.13289063 495.55589844 -64.33203125 496.35742188 C-60.14331696 500.57781552 -56.11816926 504.88518446 -52.23779297 509.38989258 C-49.43154238 512.61041478 -46.4919109 515.70436742 -43.5625 518.8125 C-30.87122483 532.34941275 -30.87122483 532.34941275 -27.5625 537.3125 C-31.9700185 541.74490459 -36.38093892 546.17388646 -40.79492188 550.59985352 C-42.29323707 552.10316955 -43.79065007 553.60738536 -45.28710938 555.11254883 C-47.44940225 557.2870947 -49.61501613 559.4582871 -51.78125 561.62890625 C-52.76925598 562.62465416 -52.76925598 562.62465416 -53.77722168 563.64051819 C-57.60804148 567.47179005 -61.55700683 571.09029207 -65.65710449 574.63072205 C-68.5516586 577.18557078 -71.26129854 579.9059387 -73.96875 582.65625 C-74.53775024 583.22903687 -75.10675049 583.80182373 -75.69299316 584.39196777 C-77.48532982 586.19635251 -79.27434316 588.0039736 -81.0625 589.8125 C-94.25687621 603.1571783 -94.25687621 603.1571783 -100.44335938 608.41601562 C-105.7129167 613.13190518 -110.59340104 618.2844123 -115.5625 623.3125 C-128.19652461 636.09650456 -128.19652461 636.09650456 -132.53125 639.78125 C-138.73683586 645.06315327 -144.33750977 651.02229426 -150.0625 656.8125 C-163.22783263 670.12780387 -163.22783263 670.12780387 -169.41210938 675.38476562 C-174.86371743 680.271902 -179.91654315 685.60792362 -185.0625 690.8125 C-193.56858852 699.41548456 -202.01072683 707.85017721 -211.5625 715.3125 C-227.99297059 704.73227273 -243.55508187 692.83591902 -257.98046875 679.6484375 C-259.40960291 678.35551431 -260.84534108 677.06940314 -262.30688477 675.81323242 C-267.82445487 671.06865855 -272.99294546 666.03162942 -278.125 660.875 C-278.93646484 660.06740234 -279.74792969 659.25980469 -280.58398438 658.42773438 C-285.45138948 653.55247228 -290.10835175 648.5673194 -294.5625 643.3125 C-295.10495361 642.67675049 -295.64740723 642.04100098 -296.20629883 641.38598633 C-314.09262102 620.28814168 -329.32451978 597.69869295 -342.44824219 573.36035156 C-343.45674302 571.50686669 -344.49616244 569.6702874 -345.5390625 567.8359375 C-393.06419778 482.76007804 -400.12908321 375.82668228 -374.59863281 282.92919922 C-369.02338294 263.46837177 -362.06206573 244.69172455 -353.5625 226.3125 C-352.82606549 224.67872662 -352.09036742 223.04462105 -351.35546875 221.41015625 C-337.62203945 191.24554914 -318.82868762 163.65016285 -297.5625 138.3125 C-296.77746094 137.34183594 -295.99242187 136.37117187 -295.18359375 135.37109375 C-288.42542572 127.12914704 -281.01268452 119.54759839 -273.5 112 C-272.99338837 111.48821198 -272.48677673 110.97642395 -271.96481323 110.4491272 C-265.89020644 104.32565738 -259.70568644 98.59345375 -252.93969727 93.23046875 C-250.72273889 91.44178384 -248.6363301 89.57618722 -246.5625 87.625 C-196.06416365 42.41867403 -126.69541907 14.55579331 -60.5 4.125 C-59.5207959 3.96999023 -58.5415918 3.81498047 -57.53271484 3.65527344 C-38.35820673 0.79545241 -19.37065766 -0.06165771 0 0 Z M5.79760742 129.70605469 C4.20787813 131.38192796 4.20787813 131.38192796 3.4375 134.3125 C6.27398562 136.52366216 9.13474766 138.70128435 12 140.875 C12.78052734 141.48408203 13.56105469 142.09316406 14.36523438 142.72070312 C26.38079328 151.76827537 40.24970961 156.55234308 54.375 161.25 C55.84857434 161.74725621 57.32188308 162.24530019 58.79492188 162.74414062 C62.33945236 163.94263263 65.88738803 165.13062769 69.4375 166.3125 C36.98935455 167.29357495 9.90332049 157.71994328 -19.328125 144.44506836 C-54.91388881 128.28692786 -94.57612153 113.8340476 -133.6328125 127.12890625 C-145.8072726 132.04738813 -153.45963126 139.69432299 -158.65234375 151.734375 C-162.32984456 162.15133008 -161.05899638 172.37217418 -156.5625 182.3125 C-148.82371381 196.12736235 -136.53692831 204.90161377 -123.5625 213.3125 C-122.840625 213.78848633 -122.11875 214.26447266 -121.375 214.75488281 C-119.23747583 216.16240431 -117.09002566 217.55305176 -114.9375 218.9375 C-114.28700684 219.36353516 -113.63651367 219.78957031 -112.96630859 220.22851562 C-109.19466312 222.60648374 -106.12624019 224.08142455 -101.5625 224.3125 C-98.70449054 223.59397605 -95.67312917 222.42312917 -93.5625 220.3125 C-92.78116493 211.82267765 -94.37870846 203.71993408 -96.0625 195.4375 C-96.53528562 193.06590511 -97.00419341 190.69353304 -97.46875 188.3203125 C-97.67822266 187.28535645 -97.88769531 186.25040039 -98.10351562 185.18408203 C-98.53264397 182.49929074 -98.64977201 180.02478939 -98.5625 177.3125 C-95.5925 176.8175 -95.5925 176.8175 -92.5625 176.3125 C-92.34335937 177.13492188 -92.12421875 177.95734375 -91.8984375 178.8046875 C-88.65864642 190.2098057 -84.42781522 200.25484728 -73.76171875 206.33984375 C-67.41462269 209.19143763 -59.85479454 209.5641246 -53.19140625 207.62109375 C-48.04643346 205.29661644 -44.10230015 201.67656499 -41.72729492 196.48779297 C-41.03294651 194.52778095 -40.43573003 192.56473053 -39.875 190.5625 C-39.66786377 189.86382812 -39.46072754 189.16515625 -39.24731445 188.4453125 C-37.7044484 183.1295658 -36.44306985 177.77991876 -35.5625 172.3125 C-31.69640703 175.61625217 -27.90505816 178.90025722 -24.4375 182.625 C-12.57095563 194.6270072 2.58990538 203.02109709 19.625 203.625 C45.03307525 203.05161607 66.24896159 189.22457411 86.4375 175.3125 C86.1115686 176.3180896 86.1115686 176.3180896 85.77905273 177.34399414 C85.50005127 178.23207764 85.2210498 179.12016113 84.93359375 180.03515625 C84.65443115 180.91179932 84.37526855 181.78844238 84.08764648 182.69165039 C82.19060799 190.33893099 85.15421709 198.40628423 88.4375 205.3125 C90.02018551 207.35060213 90.95184573 208.16115212 93.41796875 208.9296875 C94.14628906 209.01476562 94.87460937 209.09984375 95.625 209.1875 C96.34042969 209.28804688 97.05585937 209.38859375 97.79296875 209.4921875 C104.36194972 209.0458461 109.9350811 205.67910083 115.25 202 C116.1944397 201.35575073 116.1944397 201.35575073 117.15795898 200.69848633 C119.26151629 199.25080845 121.35090433 197.78451198 123.4375 196.3125 C124.20126953 195.77625 124.96503906 195.24 125.75195312 194.6875 C153.91056966 175.01097615 153.91056966 175.01097615 169.4375 145.3125 C170.58626116 136.7149296 168.95605312 129.19841164 163.859375 122.12109375 C162.13707799 120.07683581 160.34335783 118.1859177 158.4375 116.3125 C157.91414063 115.77882813 157.39078125 115.24515625 156.8515625 114.6953125 C118.56357282 78.648571 39.10045455 96.85507162 5.79760742 129.70605469 Z M-84.5625 250.3125 C-85.49803711 250.54469238 -86.43357422 250.77688477 -87.39746094 251.01611328 C-96.2181682 253.25955965 -104.06263566 255.95018913 -111.5625 261.3125 C-108.1930976 262.43563413 -107.31261637 262.18582115 -103.99926758 261.23266602 C-103.07853958 260.97232071 -102.15781158 260.7119754 -101.20918274 260.44374084 C-100.21847275 260.15422043 -99.22776276 259.86470001 -98.20703125 259.56640625 C-97.19025803 259.27644272 -96.1734848 258.98647919 -95.12590027 258.68772888 C-91.8732481 257.75814317 -88.6241559 256.81672523 -85.375 255.875 C-83.17274995 255.24335942 -80.97027852 254.61249016 -78.76757812 253.98242188 C-73.36328302 252.43472807 -67.96186482 250.87730155 -62.5625 249.3125 C-62.5625 250.9625 -62.5625 252.6125 -62.5625 254.3125 C-63.35833496 254.61430176 -64.15416992 254.91610352 -64.97412109 255.22705078 C-67.97773181 256.37134576 -70.97788171 257.52420755 -73.97607422 258.68261719 C-75.26450099 259.17848669 -76.55418477 259.67110467 -77.84521484 260.16015625 C-91.31416005 265.26726212 -103.58300893 270.87388156 -111.5625 283.3125 C-111.5625 283.9725 -111.5625 284.6325 -111.5625 285.3125 C-104.03084747 284.69039214 -96.79558685 283.12329805 -89.43539429 281.47320557 C-73.24213365 277.86363296 -57.06147955 275.15050984 -40.5625 273.3125 C-39.25466553 273.15890015 -39.25466553 273.15890015 -37.92041016 273.00219727 C-26.85026903 271.88067286 -15.67743788 272.02559833 -4.5625 272 C-3.43732971 271.99704926 -2.31215942 271.99409851 -1.15289307 271.99105835 C13.50991705 271.98234674 27.99564543 272.39536646 42.5625 274.125 C43.61123291 274.24915787 43.61123291 274.24915787 44.68115234 274.37582397 C53.08470035 275.40061333 61.41766339 276.76871119 69.72903442 278.36787415 C75.01879061 279.35497024 79.20721879 279.57498167 84.4375 278.3125 C86.83967497 276.33888207 87.42537758 275.34886727 88.4375 272.3125 C89.12099234 262.86685991 89.32884781 255.13034266 83.03515625 247.64453125 C74.63078017 239.32234956 61.63323934 238.34449575 50.4375 237.3125 C49.51469238 237.22492432 48.59188477 237.13734863 47.64111328 237.04711914 C38.81936943 236.28324035 30.03474574 236.11044656 21.1875 236.125 C20.44461731 236.12593658 19.70173462 236.12687317 18.93634033 236.12783813 C-16.24959886 236.22321463 -50.49360211 241.84839751 -84.5625 250.3125 Z M203.4375 481.3125 C201.76251064 482.98748936 201.95021524 485.18729186 201.640625 487.484375 C201.4859375 488.54140625 201.33125 489.5984375 201.171875 490.6875 C200.85146537 492.92003163 200.54395642 495.15445653 200.25 497.390625 C199.30628913 503.66173597 198.59745499 507.19102652 193.4375 511.3125 C190.49659009 515.67378745 190.74778226 520.9983942 190.29296875 526.09765625 C189.4375 529.3125 189.4375 529.3125 186.96875 531.01171875 C186.1334375 531.44097656 185.298125 531.87023437 184.4375 532.3125 C183.29273567 534.0693344 183.29273567 534.0693344 182.75 536.0625 C182.51667969 536.76117187 182.28335938 537.45984375 182.04296875 538.1796875 C181.47971361 540.16379916 181.01679067 542.17564131 180.5625 544.1875 C180.19125 545.21875 179.82 546.25 179.4375 547.3125 C177.77933216 548.00003301 176.11290664 548.66811283 174.4375 549.3125 C171.26902913 560.83243423 171.4192027 578.85378491 175.95703125 589.87890625 C178.28947241 593.7129718 181.19591279 596.84970306 184.4140625 599.9609375 C186.7117312 602.63120113 187.532503 604.93579077 188.4375 608.3125 C204.57465946 595.53724876 214.9369003 576.14293976 217.78369141 555.84399414 C218.0731906 553.31469834 218.32589576 550.78476843 218.5625 548.25 C218.64886719 547.40373047 218.73523438 546.55746094 218.82421875 545.68554688 C219.90356122 536.39397253 219.90356122 536.39397253 218.4375 527.3125 C219.0975 527.3125 219.7575 527.3125 220.4375 527.3125 C225.89827334 554.22002026 217.75633913 580.25397788 203 602.5625 C202.14947013 603.8149774 201.29680915 605.06602959 200.4375 606.3125 C211.30220581 607.01344876 219.29965743 603.38173698 227.4375 596.3125 C228.10652344 595.73757813 228.77554688 595.16265625 229.46484375 594.5703125 C237.40741343 587.22229218 243.02079544 578.11487225 244.4375 567.3125 C244.1075 566.9825 243.7775 566.6525 243.4375 566.3125 C243.3046875 564.45703125 243.3046875 564.45703125 243.3125 562.125 C243.30863281 560.98998047 243.30863281 560.98998047 243.3046875 559.83203125 C243.4375 557.3125 243.4375 557.3125 243.9375 554.62109375 C244.59793668 550.25086041 244.58264904 545.97513976 244.5625 541.5625 C244.56636719 540.70011719 244.57023438 539.83773437 244.57421875 538.94921875 C244.57292969 538.12550781 244.57164062 537.30179688 244.5703125 536.453125 C244.56862061 535.33212402 244.56862061 535.33212402 244.56689453 534.18847656 C244.55201491 532.22102387 244.55201491 532.22102387 243.4375 530.3125 C241.7875 530.3125 240.1375 530.3125 238.4375 530.3125 C238.33953125 529.66925781 238.2415625 529.02601563 238.140625 528.36328125 C235.99197515 515.22047158 235.99197515 515.22047158 230.4375 503.3125 C228.40117177 502.71008623 226.41278321 502.43395605 224.3125 502.1328125 C222.4375 501.3125 222.4375 501.3125 221.44921875 499.0546875 C221.11535156 498.14976562 220.78148437 497.24484375 220.4375 496.3125 C215.86858461 490.35709093 210.80310794 485.29100496 204.4375 481.3125 C204.1075 481.3125 203.7775 481.3125 203.4375 481.3125 Z M-215.5625 502.3125 C-217.72261123 504.6207125 -219.81217845 506.96870162 -221.87109375 509.3671875 C-222.42925781 510.00914062 -222.98742187 510.65109375 -223.5625 511.3125 C-223.98660156 511.83070313 -224.41070312 512.34890625 -224.84765625 512.8828125 C-226.5625 514.3125 -226.5625 514.3125 -230.07421875 515.52734375 C-233.84224427 517.01911134 -233.84224427 517.01911134 -235.26953125 520.75390625 C-235.66786684 522.11924844 -236.03530423 523.49389996 -236.375 524.875 C-236.57311279 525.58720703 -236.77122559 526.29941406 -236.9753418 527.03320312 C-238.43512322 532.39888621 -239.67808841 537.82122806 -240.5625 543.3125 C-242.2125 543.3125 -243.8625 543.3125 -245.5625 543.3125 C-248.21882256 551.98273684 -246.74125116 561.97305843 -245 570.69140625 C-244.56475757 573.29897471 -244.41414526 575.67456734 -244.5625 578.3125 C-245.0575 578.8075 -245.0575 578.8075 -245.5625 579.3125 C-245.1591953 590.40337933 -239.08538222 599.46922246 -231.5625 607.3125 C-224.23985943 613.75731264 -215.4527594 619.48139127 -205.375 619.5625 C-204.446875 619.48 -203.51875 619.3975 -202.5625 619.3125 C-203.96637335 616.24339389 -205.7356287 613.53049769 -207.63427734 610.74633789 C-221.39869343 590.34499759 -224.01296296 568.56819657 -222.5625 544.3125 C-222.27080289 542.96944316 -221.95409084 541.62990104 -221.5625 540.3125 C-221.5625 541.3025 -221.5625 542.2925 -221.5625 543.3125 C-219.71598082 570.93210378 -216.11774191 596.1197939 -195.36328125 616.46875 C-193.8090448 617.8054564 -192.1939362 619.07118985 -190.5625 620.3125 C-190.335625 619.590625 -190.10875 618.86875 -189.875 618.125 C-188.29844914 614.74667673 -186.25263425 612.87453262 -183.5625 610.3125 C-174.39356577 600.58787278 -174.2559206 587.90891458 -174.5625 575.3125 C-174.34325712 568.05853746 -174.34325712 568.05853746 -176.91796875 561.66796875 C-177.46066406 561.22066406 -178.00335938 560.77335938 -178.5625 560.3125 C-182.4504688 557.05475058 -183.06148656 552.86153448 -184.40234375 548.125 C-185.6786607 545.03089831 -186.67784634 543.93829306 -189.5625 542.3125 C-190.2225 542.3125 -190.8825 542.3125 -191.5625 542.3125 C-191.64886719 541.21550781 -191.73523438 540.11851562 -191.82421875 538.98828125 C-191.96498072 537.53374094 -192.10697295 536.07931933 -192.25 534.625 C-192.33024414 533.5431543 -192.33024414 533.5431543 -192.41210938 532.43945312 C-192.97334991 527.09546718 -194.41968667 524.94621185 -198.5625 521.3125 C-200.63532065 518.10610556 -201.05128168 515.00654174 -201.5625 511.25 C-202.41920205 505.23948721 -203.4386846 499.27828602 -204.5625 493.3125 C-208.02783012 493.3125 -213.16331505 500.02048326 -215.5625 502.3125 Z M185.4375 609.3125 C184.4475 610.7975 184.4475 610.7975 183.4375 612.3125 C184.7575 611.6525 186.0775 610.9925 187.4375 610.3125 C186.7775 609.9825 186.1175 609.6525 185.4375 609.3125 Z M177.4375 616.3125 C177.1075 616.9725 176.7775 617.6325 176.4375 618.3125 C177.4275 617.9825 178.4175 617.6525 179.4375 617.3125 C178.7775 616.9825 178.1175 616.6525 177.4375 616.3125 Z M-187.5625 623.3125 C-186.5725 624.7975 -186.5725 624.7975 -185.5625 626.3125 C-184.9025 625.9825 -184.2425 625.6525 -183.5625 625.3125 C-184.8825 624.6525 -186.2025 623.9925 -187.5625 623.3125 Z " fill="#DFA11E" transform="translate(594.5625,228.6875)"/>
<path d="M0 0 C3.86778691 1.60394007 6.62646356 4.22636012 9.625 7.0625 C10.69495303 8.05897986 11.76527107 9.05506793 12.8359375 10.05078125 C13.36799805 10.54787598 13.90005859 11.0449707 14.44824219 11.55712891 C19.52519711 16.27783432 24.7079422 20.88683003 29.9375 25.4375 C34.13442081 29.09178862 38.2365276 32.84744973 42.34765625 36.59765625 C44.52460996 38.56941844 46.71838674 40.51365337 48.9375 42.4375 C53.33196199 46.25445569 57.60016232 50.20667171 61.875 54.15625 C64.18188875 56.27340279 66.52774935 58.34009423 68.890625 60.39453125 C72.92246567 63.9104265 76.85130159 67.52499834 80.75 71.1875 C81.43956787 71.83388428 82.12913574 72.48026855 82.83959961 73.14624023 C87.66940532 77.69433988 92.38592152 82.33981581 97.04272461 87.06420898 C99.54164281 89.58735073 102.07362815 91.98982478 104.8125 94.25 C107.8758604 96.78570023 110.34896719 99.636932 112.91796875 102.6640625 C115.99390494 106.11511286 119.29704144 109.32524563 122.59204102 112.56567383 C125.43012092 115.37348088 128.09160203 118.22079395 130.625 121.3125 C139.80952336 132.00559242 154.18065995 138.29528005 168 140 C175.59314984 140.46880378 183.21020063 140.28480062 190.8125 140.1875 C192.87303706 140.17242171 194.93358483 140.15873889 196.99414062 140.14648438 C201.99636245 140.11373774 206.99806038 140.06212996 212 140 C209.49395058 142.64074564 207.13857577 144.70799718 203.98046875 146.515625 C203.21395996 146.95777344 202.44745117 147.39992188 201.65771484 147.85546875 C200.84254395 148.31566406 200.02737305 148.77585937 199.1875 149.25 C197.90673584 149.97896484 197.90673584 149.97896484 196.60009766 150.72265625 C194.07103049 152.15621984 191.53592013 153.57860568 189 155 C188.35595215 155.36673828 187.7119043 155.73347656 187.04833984 156.11132812 C116.80632632 196.04865098 28.60297192 209.8893436 -51 198 C-51.98500488 197.86609863 -52.97000977 197.73219727 -53.98486328 197.59423828 C-106.25948567 190.47176702 -161.72504344 171.42580979 -205 141 C-205.33 140.34 -205.66 139.68 -206 139 C-203.56236065 139.14375038 -201.12488437 139.28952374 -198.6875 139.4375 C-197.95273437 139.48189209 -197.21796875 139.52628418 -196.4609375 139.57202148 C-192.46173474 139.82109617 -188.48486075 140.13533269 -184.5 140.5625 C-164.03335375 142.42866655 -144.29074614 140.73357521 -127.875 127.0625 C-123.12852801 122.51055555 -119.33156954 117.32226234 -115.46923828 112.02587891 C-109.46400711 103.80035614 -102.87570459 96.37735648 -95.0625 89.80859375 C-92.59340953 87.64346328 -90.30608776 85.33772616 -88 83 C-85.14476317 80.11010172 -82.28499804 77.31548255 -79.1875 74.6875 C-75.42865137 71.477611 -71.97257321 68.01210165 -68.5 64.5 C-64.49087701 60.44534466 -60.44135492 56.56021844 -56.08984375 52.87109375 C-52.72657906 49.85987172 -49.59743632 46.61725871 -46.42602539 43.40649414 C-43.07401352 40.02902798 -39.61776536 36.85743526 -35.9921875 33.7734375 C-32.65679203 30.80428153 -29.57480673 27.58181657 -26.4375 24.40625 C-23.74974174 21.75295018 -20.94016077 19.30313329 -18.0703125 16.8515625 C-14.68122578 13.82056796 -11.53796255 10.54614728 -8.34375 7.3125 C-5.68150881 4.68575536 -2.93319623 2.31568123 0 0 Z M-12 66 C-12.33 67.98 -12.66 69.96 -13 72 C-13.6391333 72.0501123 -14.2782666 72.10022461 -14.93676758 72.15185547 C-17.89583218 72.38717194 -20.85413523 72.63104869 -23.8125 72.875 C-25.31973633 72.99294922 -25.31973633 72.99294922 -26.85742188 73.11328125 C-38.24630583 73.73354288 -38.24630583 73.73354288 -49 77 C-49.268125 78.19625 -49.53625 79.3925 -49.8125 80.625 C-51.78839157 86.24331795 -56.36215094 87.66564929 -61.4375 90.15234375 C-70.0659985 94.45484396 -76.96833208 100.58533325 -83 108 C-82.31486328 108.2266333 -81.62972656 108.4532666 -80.92382812 108.68676758 C-77.78201241 109.72705649 -74.64100304 110.76976004 -71.5 111.8125 C-70.42234375 112.16892578 -69.3446875 112.52535156 -68.234375 112.89257812 C-65.15219405 113.91683948 -62.07452324 114.9529904 -59 116 C-57.77204712 116.41741455 -57.77204712 116.41741455 -56.51928711 116.84326172 C-51.96710785 118.45843431 -49.59857085 119.84228664 -47 124 C-46.67 124.99 -46.34 125.98 -46 127 C-42.26350404 128.6526809 -38.64723623 129.83761918 -34.68359375 130.83203125 C-25.60455263 133.21591355 -25.60455263 133.21591355 -23.7109375 135.671875 C-23.0873569 137.42992152 -22.54185373 139.21507006 -22 141 C-17.87090825 144.42412487 -12.99551033 146.55668145 -8.171875 148.8515625 C-5.30733538 150.3662651 -4.19467019 151.36954528 -3.23046875 154.4921875 C-2.21006177 157.21184163 -2.21006177 157.21184163 0.51171875 158.2578125 C4.00072149 159.21052912 7.48611041 160.14259628 11 161 C12.16402344 161.30164063 13.32804687 161.60328125 14.52734375 161.9140625 C29.60340979 165.41707893 45.84882665 166.42832346 59.65625 158.46875 C62.70025989 156.50362969 65.43600276 154.56399724 68 152 C69.98356483 151.28591666 71.98315437 150.61382258 74 150 C74.33644531 150.99580078 74.33644531 150.99580078 74.6796875 152.01171875 C76.40869847 155.92501281 78.71703095 159.28823157 81.125 162.8125 C81.59292969 163.50537109 82.06085938 164.19824219 82.54296875 164.91210938 C83.69112437 166.61091105 84.84499367 168.30584864 86 170 C86.33 169.34 86.66 168.68 87 168 C85.62006106 165.45288804 84.19033476 163.05542501 82.625 160.625 C82.16601318 159.90473633 81.70702637 159.18447266 81.23413086 158.44238281 C59.96466268 125.43386771 34.52792043 108.34156875 -3.375 99.0625 C-4.23633545 98.85077148 -5.0976709 98.63904297 -5.98510742 98.42089844 C-10.7788851 97.31096944 -15.08073792 96.7812188 -20 97 C-20.495 96.01 -20.495 96.01 -21 95 C-20.29875 95.185625 -19.5975 95.37125 -18.875 95.5625 C-16.05357807 96.17248966 -16.05357807 96.17248966 -13.5234375 95.4296875 C-8.43023878 94.80856571 -3.78162168 95.6964531 1.25 96.5625 C2.31541016 96.74522461 3.38082031 96.92794922 4.47851562 97.11621094 C29.13683559 101.59080109 49.36600953 111.88314591 67.74609375 128.95703125 C70.08747 131.0792839 72.51466416 133.04942778 75 135 C78.73517601 127.0902155 76.74757011 118.40806893 73.9375 110.5 C67.11289699 94.17944936 55.59619675 82.07518816 40 74 C38.01608577 73.28688797 36.01960765 72.60467295 34 72 C33.67 72.66 33.34 73.32 33 74 C26.77587885 73.42766702 21.28706671 71.98945737 15.375 70 C8.00392943 67.54297648 1.47133783 65.85031847 -6.375 65.9375 C-7.43460938 65.94652344 -8.49421875 65.95554687 -9.5859375 65.96484375 C-10.38257813 65.97644531 -11.17921875 65.98804688 -12 66 Z M87 170 C87.66 171.65 88.32 173.3 89 175 C89.33 174.34 89.66 173.68 90 173 C89.01 172.01 88.02 171.02 87 170 Z " fill="#EA9B1D" transform="translate(591,805)"/>
<path d="M0 0 C1.13211914 0.01256836 1.13211914 0.01256836 2.28710938 0.02539062 C10.04773008 0.18122638 17.7761747 0.85926188 25.5 1.6003418 C36.71358298 3.2919056 36.71358298 3.2919056 47 0.3125 C47.99 0.3125 48.98 0.3125 50 0.3125 C50 0.9725 50 1.6325 50 2.3125 C49.34 2.3125 48.68 2.3125 48 2.3125 C47.773125 2.869375 47.54625 3.42625 47.3125 4 C42.19339573 13.01937419 32.34911542 17.55113406 22.89453125 20.55078125 C11.10043517 23.65449074 -1.19850903 23.70083867 -12 17.625 C-15.64021968 13.415996 -16 8.73635317 -16 3.3125 C-10.51423986 0.99207244 -5.99522144 -0.14946535 0 0 Z " fill="#D7A51E" transform="translate(698,686.6875)"/>
<path d="M0 0 C1.24330078 0.01353516 1.24330078 0.01353516 2.51171875 0.02734375 C3.10597656 0.03894531 3.70023437 0.05054688 4.3125 0.0625 C-4.35612398 11.46858418 -16.73025448 16.12655445 -30.6875 18.0625 C-42.08079431 18.90285646 -53.42566163 17.61279408 -62.80859375 10.68359375 C-65.52630098 8.33879437 -67.61711371 6.00111279 -69.6875 3.0625 C-69.6875 2.4025 -69.6875 1.7425 -69.6875 1.0625 C-69.04793869 1.06472061 -68.40837738 1.06694122 -67.74943542 1.06922913 C-61.04886437 1.09147831 -54.34830393 1.10648796 -47.64770508 1.11743164 C-45.15225803 1.12243771 -42.65681388 1.12924455 -40.16137695 1.13793945 C-36.55940024 1.15016905 -32.95746255 1.15576573 -29.35546875 1.16015625 C-28.25293259 1.16531754 -27.15039642 1.17047882 -26.01445007 1.17579651 C-19.95036985 1.1762285 -13.99934253 0.91781129 -7.96691895 0.28735352 C-5.30300573 0.02457152 -2.67581622 -0.03877995 0 0 Z " fill="#F7941D" transform="translate(495.6875,685.9375)"/>
<path d="M0 0 C1.32 0.33 2.64 0.66 4 1 C2.68 1.33 1.36 1.66 0 2 C0 1.34 0 0.68 0 0 Z " fill="#F7941D" transform="translate(417,684)"/>
</svg>
